<svg width="183" height="361" viewBox="0 0 183 361" fill="none" xmlns="http://www.w3.org/2000/svg">
<g filter="url(#filter0_d_0_507)">
<rect x="25" width="133" height="286" rx="13" fill="#5175FF"/>
</g>
<rect opacity="0.15" x="25" y="107.768" width="133" height="0.592133" fill="white"/>
<path opacity="0.145996" d="M124.25 53.884C124.25 71.92 109.589 86.5434 91.5 86.5434C73.4114 86.5434 58.75 71.92 58.75 53.884C58.75 35.848 73.4114 21.2246 91.5 21.2246C109.589 21.2246 124.25 35.848 124.25 53.884Z" stroke="white" stroke-linejoin="round"/>
<path d="M78.0249 84.1789L80.1323 79.3875C83.6824 80.9488 87.5314 81.7656 91.5 81.7656C107.111 81.7656 119.766 69.1107 119.766 53.5C119.766 37.8893 107.111 25.2344 91.5 25.2344C75.8893 25.2344 63.2344 37.8893 63.2344 53.5H58C58 34.9985 72.9985 20 91.5 20C110.002 20 125 34.9985 125 53.5C125 72.0015 110.002 87 91.5 87C86.8024 87 82.2361 86.031 78.0249 84.1789Z" fill="#5CFCD3"/>
<path fill-rule="evenodd" clip-rule="evenodd" d="M77.751 62.6749C78.7344 62.6749 79.5941 62.5053 80.3301 62.1661C81.0661 61.8268 81.6397 61.3519 82.051 60.7412C82.4623 60.1306 82.668 59.4213 82.668 58.6133C82.668 57.7744 82.45 57.042 82.0139 56.4159C81.5779 55.7898 80.9733 55.3164 80.2002 54.9957C80.8249 54.6935 81.315 54.274 81.6707 53.7374C82.0263 53.2008 82.2041 52.5809 82.2041 51.8778C82.2041 51.1499 82.0186 50.5131 81.6475 49.9672C81.2764 49.4213 80.7568 48.9973 80.0889 48.6951C79.4209 48.3928 78.6416 48.2417 77.751 48.2417C76.8542 48.2417 76.0702 48.3928 75.3992 48.6951C74.7281 48.9973 74.207 49.4213 73.8359 49.9672C73.4648 50.5131 73.2793 51.1499 73.2793 51.8778C73.2793 52.5871 73.4571 53.2085 73.8127 53.7421C74.1684 54.2756 74.6616 54.6935 75.2925 54.9957C74.5256 55.3164 73.9241 55.7898 73.488 56.4159C73.052 57.042 72.834 57.7744 72.834 58.6133C72.834 59.4213 73.0396 60.1306 73.4509 60.7412C73.8622 61.3519 74.4359 61.8268 75.1719 62.1661C75.9079 62.5053 76.7676 62.6749 77.751 62.6749ZM77.751 53.7929C77.2253 53.7929 76.8 53.6403 76.4753 53.335C76.1506 53.0296 75.9883 52.6272 75.9883 52.1276C75.9883 51.6218 76.1506 51.2178 76.4753 50.9155C76.8 50.6133 77.2253 50.4622 77.751 50.4622C78.2705 50.4622 78.6926 50.6133 79.0173 50.9155C79.342 51.2178 79.5044 51.6218 79.5044 52.1276C79.5044 52.6272 79.342 53.0296 79.0173 53.335C78.6926 53.6403 78.2705 53.7929 77.751 53.7929ZM76.1414 59.6403C76.5465 59.998 77.083 60.1769 77.751 60.1769C78.4189 60.1769 78.9555 59.998 79.3606 59.6403C79.7657 59.2825 79.9683 58.8137 79.9683 58.2339C79.9683 57.648 79.7657 57.1777 79.3606 56.823C78.9555 56.4683 78.4189 56.291 77.751 56.291C77.083 56.291 76.5465 56.4683 76.1414 56.823C75.7362 57.1777 75.5337 57.648 75.5337 58.2339C75.5337 58.8137 75.7362 59.2825 76.1414 59.6403ZM89.0786 62.3974L93.8193 50.4807V48.5193H84.8018V51.0173H90.5259L86.0171 62.3974H89.0786ZM101.056 54.7413C100.604 54.9479 100.051 55.0512 99.395 55.0512C98.5229 55.0512 97.8287 54.8754 97.3123 54.5239C96.7958 54.1723 96.4247 53.7405 96.199 53.2286C95.9732 52.7166 95.8604 52.2201 95.8604 51.739C95.8604 51.2579 95.9732 50.7613 96.199 50.2494C96.4247 49.7375 96.7958 49.3057 97.3123 48.9541C97.8287 48.6025 98.5229 48.4267 99.395 48.4267C100.051 48.4267 100.604 48.5301 101.056 48.7367C101.507 48.9433 101.872 49.2116 102.15 49.5416C102.429 49.8716 102.63 50.2294 102.753 50.6149C102.877 51.0004 102.939 51.3751 102.939 51.739C102.939 52.0967 102.877 52.4699 102.753 52.8585C102.63 53.2471 102.429 53.6064 102.15 53.9363C101.872 54.2663 101.507 54.5346 101.056 54.7413ZM100.573 62.4066L109.452 48.5008H106.919L98.0498 62.4066H100.573ZM98.5508 52.7104C98.7549 52.9757 99.0363 53.1083 99.395 53.1083C99.7599 53.1083 100.044 52.9757 100.249 52.7104C100.453 52.4452 100.555 52.1214 100.555 51.739C100.555 51.3566 100.453 51.0327 100.249 50.7675C100.044 50.5023 99.7599 50.3697 99.395 50.3697C99.0363 50.3697 98.7549 50.5023 98.5508 50.7675C98.3467 51.0327 98.2446 51.3566 98.2446 51.739C98.2446 52.1214 98.3467 52.4452 98.5508 52.7104ZM108.088 62.4899C108.96 62.4899 109.654 62.3141 110.171 61.9625C110.687 61.6109 111.06 61.1792 111.289 60.6672C111.517 60.1553 111.632 59.6588 111.632 59.1776C111.632 58.8199 111.57 58.4483 111.446 58.0628C111.323 57.6773 111.122 57.318 110.843 56.9849C110.565 56.6518 110.2 56.382 109.749 56.1753C109.297 55.9687 108.743 55.8654 108.088 55.8654C107.432 55.8654 106.879 55.9687 106.427 56.1753C105.976 56.382 105.612 56.6518 105.337 56.9849C105.062 57.318 104.862 57.6773 104.739 58.0628C104.615 58.4483 104.553 58.8199 104.553 59.1776C104.553 59.6588 104.666 60.1553 104.892 60.6672C105.118 61.1792 105.489 61.6109 106.005 61.9625C106.522 62.3141 107.216 62.4899 108.088 62.4899ZM107.239 60.1537C107.44 60.4159 107.723 60.547 108.088 60.547C108.453 60.547 108.737 60.4159 108.941 60.1537C109.146 59.8916 109.248 59.5693 109.248 59.1869C109.248 58.7983 109.146 58.4714 108.941 58.2062C108.737 57.941 108.453 57.8083 108.088 57.8083C107.723 57.8083 107.44 57.941 107.239 58.2062C107.038 58.4714 106.938 58.7983 106.938 59.1869C106.938 59.5693 107.038 59.8916 107.239 60.1537Z" fill="#5CFCD3"/>
<path fill-rule="evenodd" clip-rule="evenodd" d="M79.8836 139.463C78.7046 140.751 77.3227 141.85 75.7378 142.759L73.604 140.342C74.7096 139.702 75.6991 138.982 76.5728 138.18C77.4464 137.378 78.1538 136.534 78.6949 135.647C78.4785 135.701 78.2446 135.743 77.9933 135.774C77.7421 135.805 77.4657 135.82 77.1642 135.82C76.0045 135.82 74.9724 135.578 74.0679 135.092C73.1633 134.606 72.454 133.939 71.9399 133.091C71.4258 132.243 71.1687 131.271 71.1687 130.177C71.1687 129.051 71.4374 128.056 71.9747 127.193C72.512 126.329 73.2503 125.651 74.1896 125.157C75.129 124.664 76.2017 124.417 77.4077 124.417C78.6602 124.417 79.7522 124.685 80.6838 125.221C81.6154 125.757 82.3363 126.511 82.8466 127.482C83.3568 128.453 83.6119 129.591 83.6119 130.894C83.6119 132.366 83.2853 133.841 82.632 135.317C81.9787 136.794 81.0626 138.176 79.8836 139.463ZM75.4943 132.316C75.9813 132.833 76.5998 133.091 77.3497 133.091C78.1074 133.091 78.7355 132.829 79.2342 132.305C79.7328 131.78 79.9822 131.117 79.9822 130.315C79.9822 129.514 79.7367 128.851 79.2458 128.326C78.7549 127.802 78.1306 127.54 77.3729 127.54C76.623 127.54 76.0007 127.804 75.5059 128.332C75.0111 128.86 74.7637 129.529 74.7637 130.339C74.7637 131.14 75.0072 131.8 75.4943 132.316ZM92.0775 142.459C93.3068 142.459 94.3814 142.247 95.3014 141.823C96.2214 141.399 96.9385 140.805 97.4526 140.042C97.9667 139.278 98.2238 138.392 98.2238 137.382C98.2238 136.333 97.9512 135.418 97.4062 134.635C96.8611 133.852 96.1054 133.261 95.139 132.86C95.9199 132.482 96.5326 131.958 96.9771 131.287C97.4217 130.616 97.6439 129.841 97.6439 128.962C97.6439 128.053 97.412 127.256 96.9481 126.574C96.4843 125.892 95.8348 125.362 94.9999 124.984C94.1649 124.606 93.1908 124.417 92.0775 124.417C90.9565 124.417 89.9766 124.606 89.1378 124.984C88.2989 125.362 87.6476 125.892 87.1837 126.574C86.7198 127.256 86.4879 128.053 86.4879 128.962C86.4879 129.849 86.7102 130.626 87.1547 131.293C87.5993 131.96 88.2158 132.482 89.0044 132.86C88.0457 133.261 87.2939 133.852 86.7488 134.635C86.2038 135.418 85.9313 136.333 85.9313 137.382C85.9313 138.392 86.1883 139.278 86.7025 140.042C87.2166 140.805 87.9336 141.399 88.8536 141.823C89.7736 142.247 90.8483 142.459 92.0775 142.459ZM90.483 130.784C90.8889 131.165 91.4204 131.356 92.0775 131.356C92.7269 131.356 93.2546 131.165 93.6605 130.784C94.0663 130.402 94.2693 129.899 94.2693 129.275C94.2693 128.642 94.0663 128.137 93.6605 127.76C93.2546 127.382 92.7269 127.193 92.0775 127.193C91.4204 127.193 90.8889 127.382 90.483 127.76C90.0771 128.137 89.8741 128.642 89.8741 129.275C89.8741 129.899 90.0771 130.402 90.483 130.784ZM92.0775 139.336C91.2426 139.336 90.5719 139.113 90.0655 138.665C89.5591 138.218 89.3059 137.632 89.3059 136.908C89.3059 136.175 89.5591 135.587 90.0655 135.144C90.5719 134.701 91.2426 134.479 92.0775 134.479C92.9125 134.479 93.5832 134.701 94.0895 135.144C94.5959 135.587 94.8491 136.175 94.8491 136.908C94.8491 137.632 94.5959 138.218 94.0895 138.665C93.5832 139.113 92.9125 139.336 92.0775 139.336ZM104.231 139.382V142.112H100.891V124.764H104.231V135.288C104.463 134.926 104.718 134.573 104.996 134.23C105.275 133.887 105.58 133.523 105.912 133.137L108.162 130.547H111.815L107.362 135.739L112.65 142.112H108.556L105.24 138.203L104.231 139.382Z" fill="white"/>
<rect x="44" y="166.981" width="8.3125" height="8.28986" rx="4.14493" fill="white"/>
<rect x="61.2188" y="166.981" width="77.7812" height="8.28986" rx="4.14493" fill="#7DA7FF"/>
<rect x="44" y="187.114" width="8.3125" height="8.28986" rx="4.14493" fill="white"/>
<rect x="61.2188" y="187.114" width="49.2812" height="8.28986" rx="4.14493" fill="#7DA7FF"/>
<rect x="44" y="207.246" width="8.3125" height="8.28986" rx="4.14493" fill="white"/>
<rect x="61.2188" y="207.246" width="77.7812" height="8.28986" rx="4.14493" fill="#7DA7FF"/>
<rect x="44" y="227.379" width="8.3125" height="8.28986" rx="4.14493" fill="white"/>
<rect x="61.2188" y="227.379" width="46.9062" height="8.28986" rx="4.14493" fill="#7DA7FF"/>
<rect x="44" y="247.511" width="8.3125" height="8.28986" rx="4.14493" fill="white"/>
<rect x="61.2188" y="247.511" width="77.7812" height="8.28986" rx="4.14493" fill="#7DA7FF"/>
<defs>
<filter id="filter0_d_0_507" x="0" y="0" width="183" height="361" filterUnits="userSpaceOnUse" color-interpolation-filters="sRGB">
<feFlood flood-opacity="0" result="BackgroundImageFix"/>
<feColorMatrix in="SourceAlpha" type="matrix" values="0 0 0 0 0 0 0 0 0 0 0 0 0 0 0 0 0 0 127 0" result="hardAlpha"/>
<feMorphology radius="25" operator="erode" in="SourceAlpha" result="effect1_dropShadow_0_507"/>
<feOffset dy="50"/>
<feGaussianBlur stdDeviation="25"/>
<feColorMatrix type="matrix" values="0 0 0 0 0.293478 0 0 0 0 0.35972 0 0 0 0 0.604535 0 0 0 0.247159 0"/>
<feBlend mode="normal" in2="BackgroundImageFix" result="effect1_dropShadow_0_507"/>
<feBlend mode="normal" in="SourceGraphic" in2="effect1_dropShadow_0_507" result="shape"/>
</filter>
</defs>
</svg>
