<svg width="131" height="186" viewBox="0 0 131 186" fill="none" xmlns="http://www.w3.org/2000/svg">
<g filter="url(#filter0_d_0_137)">
<rect x="25" width="81" height="111" rx="4" fill="white"/>
</g>
<mask id="mask0_0_137" style="mask-type:alpha" maskUnits="userSpaceOnUse" x="25" y="0" width="81" height="111">
<rect x="25" width="81" height="111" rx="4" fill="white"/>
</mask>
<g mask="url(#mask0_0_137)">
<path fill-rule="evenodd" clip-rule="evenodd" d="M11.6833 86.4607L45.4308 75.087L65.5 45.683L85.9308 52.1522L113.113 10.2412V96.6312L11.6833 96.2719V86.4607Z" fill="url(#paint0_linear_0_137)"/>
<path d="M113.474 9.02026V96.631H112.751L112.751 11.4613L86.0848 52.5779L65.6471 46.1066L45.6619 75.3883L11.7995 86.8007L11.5671 86.1204L45.1997 74.7852L65.3523 45.2591L85.7767 51.7263L113.474 9.02026Z" fill="#5175FF"/>
<rect opacity="0.152227" x="65.5" width="0.361607" height="89.8058" fill="#5175FF"/>
<rect opacity="0.152227" x="45.25" width="0.361607" height="89.8058" fill="#5175FF"/>
<rect opacity="0.152227" x="86.1116" width="0.361607" height="89.8058" fill="#5175FF"/>
<ellipse cx="65.5" cy="45.6214" rx="2.16964" ry="2.15534" fill="#5175FF"/>
<path fill-rule="evenodd" clip-rule="evenodd" d="M72.0089 45.6213C72.0089 42.0502 69.0948 39.1553 65.5 39.1553C61.9052 39.1553 58.9911 42.0502 58.9911 45.6213C58.9911 49.1924 61.9052 52.0873 65.5 52.0873C69.0948 52.0873 72.0089 49.1924 72.0089 45.6213ZM59.3527 45.6213C59.3527 42.2486 62.1049 39.5145 65.5 39.5145C68.8951 39.5145 71.6473 42.2486 71.6473 45.6213C71.6473 48.994 68.8951 51.7281 65.5 51.7281C62.1049 51.7281 59.3527 48.994 59.3527 45.6213Z" fill="#5175FF"/>
<ellipse cx="45.25" cy="75.0777" rx="2.16964" ry="2.15534" fill="#5175FF"/>
<ellipse cx="86.1117" cy="52.0875" rx="2.16964" ry="2.15534" fill="#5175FF"/>
<ellipse cx="106" cy="21.5533" rx="2.16964" ry="2.15534" fill="#5175FF"/>
<ellipse cx="25" cy="81.9029" rx="2.16964" ry="2.15534" fill="#5175FF"/>
<path opacity="0.5" fill-rule="evenodd" clip-rule="evenodd" d="M63.2742 104.981C63.0922 105.146 62.8071 105.228 62.4186 105.228L62.3798 104.727C62.7617 104.727 62.9527 104.565 62.9527 104.242V101.64H63.547V104.206C63.547 104.558 63.4561 104.817 63.2742 104.981ZM65.0027 104.507C64.8985 104.551 64.7842 104.572 64.6599 104.572C64.4631 104.572 64.3022 104.52 64.1773 104.414C64.0523 104.309 63.9899 104.172 63.9899 104.003C63.9899 103.875 64.0271 103.759 64.1015 103.658C64.176 103.556 64.2786 103.476 64.4094 103.417C64.5402 103.357 64.6897 103.328 64.858 103.328C64.9111 103.328 64.9671 103.331 65.026 103.338C65.085 103.344 65.1442 103.352 65.2038 103.363C65.161 103.153 65.0076 103.048 64.7434 103.048C64.5868 103.048 64.4295 103.107 64.2715 103.224L64.0792 102.755C64.2139 102.691 64.3466 102.643 64.4774 102.612C64.6081 102.581 64.7324 102.566 64.8503 102.566C65.038 102.566 65.2008 102.601 65.3387 102.671C65.4766 102.741 65.5838 102.84 65.6602 102.968C65.7366 103.096 65.7748 103.246 65.7748 103.419V104.534H65.3048L65.2679 104.327C65.1953 104.403 65.107 104.463 65.0027 104.507ZM64.8211 104.09C64.7396 104.09 64.6739 104.07 64.624 104.031C64.5742 103.992 64.5492 103.94 64.5492 103.876C64.5492 103.805 64.58 103.75 64.6415 103.712C64.703 103.673 64.7888 103.654 64.8988 103.654C64.9519 103.654 65.006 103.658 65.061 103.667C65.116 103.676 65.1675 103.689 65.2154 103.704V103.743C65.2154 103.84 65.1775 103.923 65.1018 103.99C65.026 104.057 64.9325 104.09 64.8211 104.09ZM66.8003 103.556V104.534H66.2409V102.604H66.7303L66.7537 102.84C66.83 102.752 66.9217 102.685 67.0285 102.637C67.1353 102.59 67.2528 102.566 67.381 102.566C67.6076 102.566 67.7882 102.64 67.9229 102.789C68.0575 102.937 68.1249 103.144 68.1249 103.409V104.534H67.5636V103.517C67.5636 103.204 67.4457 103.048 67.2101 103.048C67.0884 103.048 66.9896 103.093 66.9139 103.181C66.8381 103.27 66.8003 103.395 66.8003 103.556Z" fill="#747B95"/>
<path opacity="0.5" fill-rule="evenodd" clip-rule="evenodd" d="M42.7231 104.538C43.2954 104.538 43.735 104.411 44.0419 104.158C44.3488 103.904 44.5022 103.547 44.5022 103.087C44.5022 102.628 44.3488 102.272 44.0419 102.021C43.735 101.769 43.2954 101.644 42.7231 101.644H41.8064V104.538H42.7231ZM42.7367 104.017H42.4007V102.164H42.7367C43.1122 102.164 43.4 102.245 43.6 102.406C43.8001 102.566 43.9001 102.793 43.9001 103.087C43.9001 103.381 43.8001 103.61 43.6 103.773C43.4 103.935 43.1122 104.017 42.7367 104.017ZM46.2337 104.507C46.0867 104.551 45.9459 104.572 45.8113 104.572C45.5963 104.572 45.4066 104.529 45.2422 104.442C45.0778 104.355 44.9489 104.236 44.8557 104.083C44.7625 103.931 44.7159 103.758 44.7159 103.563C44.7159 103.372 44.7605 103.201 44.8499 103.051C44.9392 102.901 45.0612 102.783 45.216 102.696C45.3707 102.609 45.5465 102.566 45.7433 102.566C45.9388 102.566 46.1126 102.609 46.2648 102.695C46.4169 102.781 46.537 102.9 46.6251 103.05C46.7131 103.201 46.7571 103.373 46.7571 103.567V103.735H45.2422C45.2772 103.842 45.3416 103.929 45.4354 103.996C45.5293 104.062 45.6391 104.096 45.7647 104.096C45.8993 104.096 46.011 104.074 46.0997 104.031C46.1884 103.988 46.269 103.932 46.3415 103.864L46.6794 104.266C46.5292 104.383 46.3807 104.463 46.2337 104.507ZM46.1822 103.426H45.2305C45.2577 103.316 45.315 103.225 45.4024 103.154C45.4898 103.084 45.5931 103.048 45.7122 103.048C45.83 103.048 45.931 103.083 46.0152 103.152C46.0994 103.222 46.155 103.313 46.1822 103.426ZM48.4906 104.497C48.3591 104.547 48.2164 104.572 48.0623 104.572C47.8564 104.572 47.6729 104.529 47.5117 104.442C47.3505 104.355 47.2233 104.236 47.13 104.085C47.0368 103.934 46.9902 103.762 46.9902 103.569C46.9902 103.376 47.0368 103.204 47.13 103.053C47.2233 102.902 47.3505 102.783 47.5117 102.696C47.6729 102.609 47.8564 102.566 48.0623 102.566C48.2164 102.566 48.3591 102.591 48.4906 102.641C48.622 102.691 48.735 102.761 48.8295 102.851L48.4352 103.22C48.342 103.105 48.2177 103.048 48.0623 103.048C47.9199 103.048 47.802 103.098 47.7088 103.197C47.6156 103.296 47.569 103.42 47.569 103.569C47.569 103.718 47.6156 103.842 47.7088 103.941C47.802 104.041 47.9199 104.09 48.0623 104.09C48.2177 104.09 48.342 104.033 48.4352 103.918L48.8295 104.287C48.735 104.377 48.622 104.447 48.4906 104.497Z" fill="#747B95"/>
<path opacity="0.5" fill-rule="evenodd" clip-rule="evenodd" d="M22.0507 102.585V104.534H21.468V101.64H22.0585L23.554 103.585V101.64H24.1483V104.534H23.5481L22.0507 102.585ZM26.0866 104.442C25.9313 104.529 25.7539 104.572 25.5545 104.572C25.3551 104.572 25.1773 104.529 25.0213 104.442C24.8653 104.355 24.7423 104.236 24.6523 104.085C24.5623 103.934 24.5173 103.762 24.5173 103.569C24.5173 103.376 24.5623 103.204 24.6523 103.053C24.7423 102.902 24.8653 102.783 25.0213 102.696C25.1773 102.609 25.3551 102.566 25.5545 102.566C25.7539 102.566 25.9313 102.609 26.0866 102.696C26.242 102.783 26.3647 102.902 26.4547 103.053C26.5447 103.204 26.5897 103.376 26.5897 103.569C26.5897 103.762 26.5447 103.934 26.4547 104.085C26.3647 104.236 26.242 104.355 26.0866 104.442ZM25.5545 104.09C25.412 104.09 25.2942 104.04 25.201 103.941C25.1077 103.842 25.0611 103.718 25.0611 103.569C25.0611 103.42 25.1077 103.296 25.201 103.197C25.2942 103.098 25.412 103.048 25.5545 103.048C25.6969 103.048 25.8147 103.098 25.9079 103.197C26.0012 103.296 26.0478 103.42 26.0478 103.569C26.0478 103.718 26.0012 103.842 25.9079 103.941C25.8147 104.04 25.6969 104.09 25.5545 104.09ZM28.2153 102.604H28.8038L28.0366 104.534H27.4928L26.6868 102.604H27.2947L27.6462 103.544C27.6644 103.593 27.6848 103.664 27.7074 103.758C27.7301 103.852 27.7479 103.937 27.7608 104.013H27.7686C27.7841 103.937 27.8039 103.853 27.8278 103.76C27.8518 103.667 27.8728 103.595 27.891 103.544L28.2153 102.604Z" fill="#747B95"/>
<path opacity="0.5" fill-rule="evenodd" clip-rule="evenodd" d="M83.092 104.534V103.307H84.2146V102.786H83.092V102.161H84.2923V101.64H82.4977V104.534H83.092ZM85.6985 104.572C85.8331 104.572 85.9739 104.551 86.1209 104.507C86.2679 104.463 86.4164 104.383 86.5666 104.266L86.2287 103.864C86.1562 103.932 86.0756 103.988 85.9869 104.031C85.8982 104.074 85.7865 104.096 85.6519 104.096C85.5263 104.096 85.4165 104.062 85.3226 103.995C85.2288 103.929 85.1644 103.842 85.1294 103.735H86.6443V103.567C86.6443 103.373 86.6003 103.201 86.5123 103.05C86.4242 102.9 86.3041 102.781 86.152 102.695C85.9998 102.609 85.826 102.566 85.6305 102.566C85.4337 102.566 85.2579 102.609 85.1032 102.696C84.9484 102.783 84.8264 102.901 84.7371 103.051C84.6477 103.201 84.6031 103.372 84.6031 103.563C84.6031 103.758 84.6497 103.931 84.7429 104.083C84.8361 104.236 84.965 104.355 85.1294 104.442C85.2938 104.529 85.4835 104.572 85.6985 104.572ZM85.1177 103.426H86.0694C86.0422 103.313 85.9866 103.222 85.9024 103.152C85.8182 103.083 85.7172 103.048 85.5994 103.048C85.4803 103.048 85.377 103.083 85.2896 103.154C85.2022 103.225 85.1449 103.316 85.1177 103.426ZM88.1923 104.572C88.3749 104.572 88.5374 104.529 88.6798 104.442C88.8222 104.355 88.9342 104.236 89.0158 104.085C89.0974 103.934 89.1382 103.762 89.1382 103.569C89.1382 103.376 89.0974 103.204 89.0158 103.053C88.9342 102.902 88.8222 102.783 88.6798 102.696C88.5374 102.609 88.3749 102.566 88.1923 102.566C88.0706 102.566 87.9573 102.586 87.8524 102.627C87.7475 102.667 87.6543 102.723 87.5727 102.795V101.64H87.0134V104.534H87.5416L87.5552 104.325C87.6368 104.404 87.732 104.465 87.8407 104.508C87.9495 104.551 88.0667 104.572 88.1923 104.572ZM87.7126 103.941C87.8058 104.04 87.9236 104.09 88.066 104.09C88.2085 104.09 88.3263 104.04 88.4195 103.941C88.5128 103.842 88.5594 103.718 88.5594 103.569C88.5594 103.42 88.5128 103.296 88.4195 103.197C88.3263 103.098 88.2085 103.048 88.066 103.048C87.9236 103.048 87.8058 103.098 87.7126 103.197C87.6193 103.296 87.5727 103.42 87.5727 103.569C87.5727 103.718 87.6193 103.842 87.7126 103.941Z" fill="#747B95"/>
<path opacity="0.5" fill-rule="evenodd" clip-rule="evenodd" d="M103.126 103.754C103.13 103.985 103.131 104.244 103.131 104.534H102.537V101.64H103.31L103.951 103.004C103.981 103.078 104.01 103.153 104.039 103.229C104.068 103.304 104.097 103.379 104.124 103.455C104.151 103.377 104.18 103.299 104.21 103.222C104.241 103.145 104.272 103.072 104.304 103.004L104.943 101.64H105.701V104.534H105.107C105.107 104.181 105.11 103.837 105.116 103.502C105.123 103.166 105.136 102.829 105.157 102.492C105.123 102.581 105.088 102.669 105.051 102.757C105.014 102.844 104.976 102.93 104.936 103.015L104.444 104.061H103.792L103.302 103.019C103.262 102.921 103.223 102.825 103.186 102.731C103.148 102.636 103.111 102.541 103.075 102.446C103.089 102.67 103.101 102.886 103.109 103.095C103.117 103.304 103.123 103.524 103.126 103.754ZM107.157 104.507C107.052 104.551 106.938 104.572 106.814 104.572C106.617 104.572 106.456 104.52 106.331 104.414C106.206 104.309 106.144 104.172 106.144 104.003C106.144 103.875 106.181 103.759 106.255 103.658C106.33 103.556 106.432 103.476 106.563 103.417C106.694 103.357 106.844 103.328 107.012 103.328C107.065 103.328 107.121 103.331 107.18 103.338C107.239 103.344 107.298 103.352 107.358 103.363C107.315 103.153 107.161 103.048 106.897 103.048C106.741 103.048 106.583 103.107 106.425 103.224L106.233 102.755C106.368 102.691 106.5 102.643 106.631 102.612C106.762 102.581 106.886 102.566 107.004 102.566C107.192 102.566 107.355 102.601 107.493 102.671C107.63 102.741 107.738 102.84 107.814 102.968C107.89 103.096 107.929 103.246 107.929 103.419V104.534H107.459L107.422 104.327C107.349 104.403 107.261 104.463 107.157 104.507ZM106.975 104.09C106.893 104.09 106.828 104.07 106.778 104.031C106.728 103.992 106.703 103.94 106.703 103.876C106.703 103.805 106.734 103.75 106.795 103.712C106.857 103.673 106.943 103.654 107.053 103.654C107.106 103.654 107.16 103.658 107.215 103.667C107.27 103.676 107.321 103.689 107.369 103.704V103.743C107.369 103.84 107.331 103.923 107.256 103.99C107.18 104.057 107.086 104.09 106.975 104.09ZM108.954 103.683V104.534H108.395V102.604H108.884L108.911 102.88C109.053 102.671 109.247 102.566 109.494 102.566C109.578 102.566 109.665 102.579 109.754 102.604L109.677 103.085C109.602 103.06 109.528 103.048 109.455 103.048C109.305 103.048 109.184 103.103 109.092 103.213C109 103.323 108.954 103.48 108.954 103.683Z" fill="#747B95"/>
<rect opacity="0.25" x="25" y="96.2717" width="81" height="0.359223" fill="#747B95"/>
<rect opacity="0.25" x="65.5" y="93.3979" width="0.361607" height="2.87379" fill="#747B95"/>
<rect opacity="0.25" x="45.25" y="93.3979" width="0.361607" height="2.87379" fill="#747B95"/>
<rect opacity="0.25" x="85.75" y="93.3979" width="0.361607" height="2.87379" fill="#747B95"/>
</g>
<defs>
<filter id="filter0_d_0_137" x="0" y="0" width="131" height="186" filterUnits="userSpaceOnUse" color-interpolation-filters="sRGB">
<feFlood flood-opacity="0" result="BackgroundImageFix"/>
<feColorMatrix in="SourceAlpha" type="matrix" values="0 0 0 0 0 0 0 0 0 0 0 0 0 0 0 0 0 0 127 0" result="hardAlpha"/>
<feMorphology radius="25" operator="erode" in="SourceAlpha" result="effect1_dropShadow_0_137"/>
<feOffset dy="50"/>
<feGaussianBlur stdDeviation="25"/>
<feColorMatrix type="matrix" values="0 0 0 0 0.293478 0 0 0 0 0.35972 0 0 0 0 0.604535 0 0 0 0.247159 0"/>
<feBlend mode="normal" in2="BackgroundImageFix" result="effect1_dropShadow_0_137"/>
<feBlend mode="normal" in="SourceGraphic" in2="effect1_dropShadow_0_137" result="shape"/>
</filter>
<linearGradient id="paint0_linear_0_137" x1="11.6833" y1="10.2412" x2="11.6833" y2="96.6312" gradientUnits="userSpaceOnUse">
<stop stop-color="#024AFF" stop-opacity="0.148028"/>
<stop offset="1" stop-color="#3B77CF" stop-opacity="0.01"/>
</linearGradient>
</defs>
</svg>
