<svg xmlns="http://www.w3.org/2000/svg" width="520.507" height="512" viewBox="0 0 520.507 512">
  <g id="Group_1" data-name="Group 1" transform="translate(-42 -165)">
    <g id="Subtraction_1" data-name="Subtraction 1" transform="translate(1372 122)" fill="#f0f0f0" stroke-linecap="round" stroke-linejoin="bevel">
      <path d="M -1073.999755859375 535.0003662109375 C -1090.025146484375 535.0003662109375 -1106.03466796875 533.3871459960938 -1121.583251953125 530.205322265625 C -1136.726196289063 527.1067504882813 -1151.62158203125 522.4829711914063 -1165.855834960938 516.4624633789063 C -1179.834838867188 510.5499572753906 -1193.319702148438 503.2303771972656 -1205.935913085938 494.7070617675781 C -1218.436645507813 486.2618103027344 -1230.192749023438 476.5621337890625 -1240.877563476563 465.8774719238281 C -1251.561645507813 455.1932983398438 -1261.26123046875 443.4373168945313 -1269.706909179688 430.9362182617188 C -1278.22998046875 418.3203125 -1285.549560546875 404.8352966308594 -1291.46240234375 390.8558959960938 C -1297.482666015625 376.6223754882813 -1302.1064453125 361.72705078125 -1305.205200195313 346.5834655761719 C -1308.386962890625 331.0348815917969 -1310.000244140625 315.0254821777344 -1310.000244140625 298.9998779296875 C -1310.000244140625 282.9743041992188 -1308.386962890625 266.9649658203125 -1305.205200195313 251.4166412353516 C -1302.106323242188 236.2730560302734 -1297.482666015625 221.3777160644531 -1291.46240234375 207.1443939208984 C -1285.549560546875 193.1648864746094 -1278.22998046875 179.6799774169922 -1269.706909179688 167.0642242431641 C -1261.261352539063 154.5631408691406 -1251.561767578125 142.8072204589844 -1240.877563476563 132.1229705810547 C -1230.192749023438 121.4383087158203 -1218.436645507813 111.7387237548828 -1205.93603515625 103.2936401367188 C -1193.320556640625 94.77063751220703 -1179.835693359375 87.45105743408203 -1165.855834960938 81.53805541992188 C -1151.62158203125 75.51763916015625 -1136.72607421875 70.89389038085938 -1121.583374023438 67.79530334472656 C -1112.516479492188 65.93993377685547 -1103.291870117188 64.61782073974609 -1093.999755859375 63.83803176879883 L -1093.999755859375 67.84800720214844 C -1148.346435546875 72.47585296630859 -1198.875 95.91815185546875 -1237.978637695313 135.0216369628906 C -1281.842895507813 178.8858947753906 -1306.000122070313 237.1211395263672 -1306.000122070313 298.9998779296875 C -1306.000122070313 426.9253845214844 -1201.925170898438 531.0003051757813 -1073.999755859375 531.0003051757813 C -952.8130493164063 531.0003051757813 -853.0299072265625 437.5960083007813 -842.8543701171875 318.9998474121094 L -838.8377685546875 318.9998474121094 C -839.6175537109375 328.2919006347656 -840.9396362304688 337.5165405273438 -842.7950439453125 346.5833740234375 C -845.8939819335938 361.7271423339844 -850.5176391601563 376.6224670410156 -856.537841796875 390.8558044433594 C -862.4506225585938 404.8352966308594 -869.7702026367188 418.3203125 -878.2933959960938 430.9362182617188 C -886.7387084960938 443.4370422363281 -896.4383544921875 455.1929626464844 -907.1228637695313 465.8774719238281 C -917.8071899414063 476.5619812011719 -929.5631103515625 486.2616271972656 -942.0640258789063 494.7071533203125 C -954.6802978515625 503.2303161621094 -968.1652221679688 510.5498962402344 -982.1442260742188 516.4624633789063 C -996.3779296875 522.48291015625 -1011.273315429688 527.1066284179688 -1026.416381835938 530.205322265625 C -1041.965087890625 533.3871459960938 -1057.974487304688 535.0003662109375 -1073.999755859375 535.0003662109375 Z" stroke="none"/>
      <path d="M -1073.999755859375 555.0004272460938 C -1091.369262695313 555.0004272460938 -1108.727661132813 553.2505493164063 -1125.5927734375 549.79931640625 C -1142.029174804688 546.4360961914063 -1158.196899414063 541.4172973632813 -1173.646850585938 534.8825073242188 C -1188.815673828125 528.4667358398438 -1203.446166992188 520.5255126953125 -1217.132080078125 511.279541015625 C -1230.687622070313 502.1217346191406 -1243.434814453125 491.6044311523438 -1255.019653320313 480.0196533203125 C -1266.604370117188 468.4348754882813 -1277.12158203125 455.687744140625 -1286.279418945313 442.1322937011719 C -1295.525268554688 428.446533203125 -1303.466552734375 413.8158569335938 -1309.882446289063 398.6468505859375 C -1316.417114257813 383.1974182128906 -1321.435791015625 367.0297546386719 -1324.799194335938 350.5929870605469 C -1328.250366210938 333.7276306152344 -1330.000244140625 316.3692016601563 -1330.000244140625 298.9998474121094 C -1330.000244140625 281.6305236816406 -1328.250366210938 264.2721862792969 -1324.799194335938 247.4070892333984 C -1321.435791015625 230.9704132080078 -1316.417114257813 214.8028564453125 -1309.882446289063 199.3533020019531 C -1303.466430664063 184.1841888427734 -1295.525146484375 169.5536346435547 -1286.279418945313 155.8680877685547 C -1277.12158203125 142.3126373291016 -1266.604370117188 129.5654144287109 -1255.019653320313 117.9808578491211 C -1243.434692382813 106.3960800170898 -1230.6875 95.87874603271484 -1217.132080078125 86.72108459472656 C -1203.446533203125 77.47519683837891 -1188.816040039063 69.53397369384766 -1173.646850585938 63.11797332763672 C -1158.197021484375 56.58330535888672 -1142.029418945313 51.56464004516602 -1125.5927734375 48.2013053894043 C -1108.7275390625 44.75019454956055 -1091.369140625 43.00030517578125 -1073.999755859375 43.00030517578125 L -1073.999755859375 87.00030517578125 C -1130.537109375 87.00086212158203 -1183.749877929688 109.0773086547852 -1223.836547851563 149.1638641357422 C -1263.92333984375 189.2504119873047 -1286.000122070313 242.4631958007813 -1286.000122070313 298.9998474121094 C -1286.000122070313 415.8973083496094 -1190.897094726563 511.0003051757813 -1073.999755859375 511.0003051757813 C -957.102783203125 511.0003051757813 -862.000244140625 415.8973083496094 -862.000244140625 298.9998474121094 L -818.0001220703125 298.999755859375 C -818 316.37109375 -819.750244140625 333.7291870117188 -823.2011108398438 350.5929870605469 C -826.564697265625 367.0300903320313 -831.5833740234375 383.1976318359375 -838.1177978515625 398.6468505859375 C -844.5335693359375 413.8155212402344 -852.4746704101563 428.4461975097656 -861.7208862304688 442.1322937011719 C -870.87890625 455.6879577636719 -881.3961181640625 468.4351806640625 -892.9807739257813 480.0196533203125 C -904.5648803710938 491.6039733886719 -917.31201171875 502.1213073730469 -930.867919921875 511.279541015625 C -944.5541381835938 520.525634765625 -959.1846923828125 528.4668579101563 -974.3532104492188 534.8825073242188 C -989.8026733398438 541.4172973632813 -1005.970336914063 546.4359741210938 -1022.406921386719 549.79931640625 C -1039.272094726563 553.2505493164063 -1056.630493164063 555.0004272460938 -1073.999755859375 555.0004272460938 Z" stroke="none" fill="#71f09c"/>
    </g>
    <path id="Path_1" data-name="Path 1" d="M178.251,391.469,280.338,493.556l245.17-245.17" transform="translate(12.249 -36.886)" fill="none" stroke="#71f09c" stroke-linecap="round" stroke-linejoin="round" stroke-width="35"/>
  </g>
</svg>
